#N canvas 827 239 527 327 12;
#X obj 195 10 r \$2-root;
#X obj 210 31 r \$2-scaleBase;
#X obj 245 82 r \$2-scaleExponent;
#X obj 223 626 *~;
#N canvas 0 50 450 300 calc 0;
#X obj 257 695 pow;
#X obj 257 638 f 2;
#X obj 298 664 / 12;
#X obj 271 819 + 1e-11;
#X obj 257 877 /;
#X obj 257 789 t b f f;
#X obj 257 599 t b f;
#X obj 298 638 f 1;
#X obj 170 285 * 7;
#X obj 170 321 / 12;
#X obj 170 350 int;
#X obj 170 379 * 12;
#X obj 170 408 / 7;
#X obj 170 437 int;
#X obj 170 466 -;
#X obj 170 247 + \$1;
#X obj 480 20 inlet rotation;
#X obj 587 20 inlet exponent;
#X obj 706 20 inlet steps;
#X obj 257 906 outlet;
#X obj 706 49 t b f f;
#X obj 311 20 inlet scaleBase;
#X obj 311 589 t f b;
#X obj 170 207 int;
#X obj 170 178 f;
#X obj 170 143 t b f;
#X obj 587 49 t b f f f;
#X obj 480 56 t f f;
#X obj 170 20 inlet root;
#X floatatom 114 577 10 0 0 0 - - - 12;
#X obj 114 95 bng 25 250 50 0 empty empty empty 17 7 0 10 #e4e4e4 #4d4d4d #373737;
#X floatatom 144 893 10 0 0 0 - - - 12;
#X obj 257 848 f 1000;
#X floatatom 508 103 5 0 0 0 - - - 12;
#X floatatom 135 618 10 0 0 0 - - - 12;
#X text 320 711 Was 41.2: 1000/41.2=24.3ms max length;
#X text 327 731 1000/2.4=416.7ms max length;
#X text 338 752 1000/8 = 125ms max length;
#X obj 257 720 * 41.2;
#X floatatom 298 690 5 0 0 0 - - - 12;
#X floatatom 231 667 5 0 0 0 - - - 12;
#X floatatom 102 448 5 0 0 0 - - - 12;
#X floatatom 105 301 5 0 0 0 - - - 12;
#X floatatom 106 363 5 0 0 0 - - - 12;
#X floatatom 110 482 5 0 0 0 - - - 12;
#X floatatom 113 514 5 0 0 0 - - - 12;
#X floatatom 198 802 5 0 0 0 - - - 12;
#X floatatom 617 186 5 0 0 0 - - - 12;
#X floatatom 616 224 5 0 0 0 - - - 12;
#X obj 286 423 t b f;
#X obj 336 448 - 69;
#X obj 336 474 / 12;
#X obj 286 449 f 2;
#X obj 286 475 pow;
#X obj 286 501 * 440;
#X obj 390 854 outlet;
#X obj 257 746 t f f;
#X connect 0 0 38 0;
#X connect 1 0 0 0;
#X connect 1 0 40 0;
#X connect 2 0 0 1;
#X connect 2 0 39 0;
#X connect 3 0 4 1;
#X connect 4 0 19 0;
#X connect 4 0 31 0;
#X connect 5 0 32 0;
#X connect 5 1 3 0;
#X connect 6 0 1 0;
#X connect 6 1 7 0;
#X connect 7 0 2 0;
#X connect 8 0 9 0;
#X connect 8 0 43 0;
#X connect 9 0 10 0;
#X connect 10 0 11 0;
#X connect 11 0 12 0;
#X connect 12 0 13 0;
#X connect 13 0 14 0;
#X connect 13 0 44 0;
#X connect 14 0 45 0;
#X connect 14 0 6 0;
#X connect 15 0 8 0;
#X connect 15 0 42 0;
#X connect 16 0 27 0;
#X connect 17 0 26 0;
#X connect 18 0 20 0;
#X connect 20 0 24 0;
#X connect 20 1 8 1;
#X connect 20 2 12 1;
#X connect 20 2 48 0;
#X connect 21 0 22 0;
#X connect 22 0 1 0;
#X connect 22 1 7 0;
#X connect 23 0 15 0;
#X connect 24 0 23 0;
#X connect 25 0 24 0;
#X connect 25 1 49 0;
#X connect 26 0 24 0;
#X connect 26 1 9 1;
#X connect 26 2 11 1;
#X connect 26 3 2 1;
#X connect 26 3 47 0;
#X connect 27 0 24 0;
#X connect 27 1 14 1;
#X connect 27 1 33 0;
#X connect 28 0 25 0;
#X connect 28 0 41 0;
#X connect 30 0 24 0;
#X connect 32 0 4 0;
#X connect 38 0 56 0;
#X connect 49 0 52 0;
#X connect 49 1 50 0;
#X connect 50 0 51 0;
#X connect 51 0 53 1;
#X connect 52 0 53 0;
#X connect 53 0 54 0;
#X connect 54 0 38 1;
#X connect 56 0 55 0;
#X connect 56 1 5 0;
#X restore 194 199 pd calc;
#X obj 229 56 r \$2-rotation;
#X obj 273 145 r \$2-steps;
#X obj 483 517 line~;
#X obj 259 380 t b f;
#X obj 175 287 t b;
#X obj 177 318 f 0;
#X obj 227 318 f 1;
#X obj 227 287 t b f;
#X obj 256 568 line~;
#X obj 177 260 moses 3.5;
#X obj 501 545 r~ \$2-fbDuck;
#X text 55 292 If freq > 285.7Hz \, silence this string., f 16;
#X obj 223 592 r~ \$2-input;
#N canvas 0 50 450 300 delay 0;
#X obj 302 83 inlet~;
#X obj 230 514 outlet~;
#X obj 584 394 r \$2-clear;
#X msg 584 423 clear;
#X obj 557 81 inlet~ ms;
#X obj 489 306 *~;
#X obj 489 425 hv.tanh~;
#X obj 675 125 r \$2-q;
#X obj 675 154 * \$1;
#X obj 177 73 r \$2-fb;
#X obj 177 207 pow 1;
#X obj 200 145 f 1;
#X obj 200 174 /;
#X obj 177 236 pack 0 5;
#X obj 177 265 line~;
#X obj 177 111 t f b b, f 13;
#X obj 489 347 *~;
#X text 555 493 changed 23 to 413 to 125;
#X obj 489 266 hv.lop~;
#X floatatom 109 198 5 0 0 0 - - - 12;
#X floatatom 124 272 5 0 0 0 - - - 12;
#X obj 242 143 f \$1;
#X obj 675 180 sig~;
#X obj 585 129 sig~ 1000;
#X obj 585 155 /~;
#X obj 585 207 *~;
#X obj 747 90 inlet~ fbDuck;
#X obj 585 181 *~ 9;
#X obj 490 470 delwrite~ \$1-\$2-d 31;
#X obj 436 130 vd~ \$1-\$2-d 31;
#X obj 489 373 hv.hip~;
#X obj 532 337 sig~ 40;
#X connect 0 0 6 0;
#X connect 2 0 3 0;
#X connect 3 0 28 0;
#X connect 4 0 24 1;
#X connect 4 0 29 0;
#X connect 5 0 16 0;
#X connect 6 0 28 0;
#X connect 7 0 8 0;
#X connect 8 0 22 0;
#X connect 9 0 15 0;
#X connect 10 0 13 0;
#X connect 10 0 20 0;
#X connect 11 0 12 0;
#X connect 12 0 10 1;
#X connect 13 0 14 0;
#X connect 14 0 5 1;
#X connect 15 0 10 0;
#X connect 15 0 19 0;
#X connect 15 1 11 0;
#X connect 15 2 21 0;
#X connect 16 0 30 0;
#X connect 18 0 5 0;
#X connect 21 0 12 1;
#X connect 22 0 25 1;
#X connect 23 0 24 0;
#X connect 24 0 27 0;
#X connect 25 0 18 1;
#X connect 26 0 16 1;
#X connect 27 0 25 0;
#X connect 29 0 18 0;
#X connect 30 0 6 0;
#X connect 30 0 1 0;
#X connect 31 0 30 1;
#X restore 453 608 pd delay;
#X obj 320 715 throw~ \$2-output;
#X obj 256 539 pack 0 4;
#X obj 483 483 pack 0 4;
#X obj 361 503 print \$1:;
#X obj 362 300 t b f;
#X obj 361 362 f;
#X obj 362 274 ftom;
#X obj 760 132 f \$1;
#X obj 564 194 t b f;
#X text 606 87 Does this value match previous string value?;
#X obj 257 411 &&;
#X obj 625 322 !=;
#X obj 258 449 t b f;
#X obj 256 480 &&;
#X floatatom 343 172 5 0 0 0 - - - 12;
#X obj 274 170 t b a a;
#X obj 274 262 f \$1;
#X obj 247 110 t f b f;
#X floatatom 398 121 5 0 0 0 - - - 12;
#X msg 361 421 midi \$1 - matchPrev \$2 - freqInBounds \$3 - stringWithinScale \$4 - passThru \$5;
#X obj 361 395 pack f f f f f;
#X obj 256 506 t b a a a;
#X obj 419 214 r \$2-showStatus;
#X floatatom 287 320 5 0 0 0 - - - 12;
#X obj 418 315 del \$1;
#X obj 287 294 <=;
#X obj 419 240 t b b;
#X obj 444 262 f \$1;
#X obj 444 288 * 5;
#X obj 632 192 tabwrite \$2-midiScale;
#X obj 625 290 tabread \$2-midiScale;
#X obj 548 120 t f f f b b;
#X obj 625 227 f \$1;
#X obj 625 253 - 1;
#X connect 0 0 4 0;
#X connect 1 0 4 1;
#X connect 2 0 36 0;
#X connect 3 0 18 0;
#X connect 4 0 14 0;
#X connect 4 1 25 0;
#X connect 4 1 50 0;
#X connect 5 0 4 2;
#X connect 6 0 33 0;
#X connect 6 0 34 0;
#X connect 7 0 18 1;
#X connect 8 0 29 0;
#X connect 8 1 29 1;
#X connect 9 0 10 0;
#X connect 10 0 29 0;
#X connect 10 0 39 2;
#X connect 11 0 29 0;
#X connect 11 0 39 2;
#X connect 12 0 11 0;
#X connect 12 1 21 0;
#X connect 13 0 3 1;
#X connect 14 0 9 0;
#X connect 14 1 12 0;
#X connect 15 0 18 2;
#X connect 17 0 3 0;
#X connect 18 0 19 0;
#X connect 20 0 13 0;
#X connect 21 0 7 0;
#X connect 23 1 24 1;
#X connect 24 0 39 0;
#X connect 25 0 23 0;
#X connect 26 0 48 1;
#X connect 27 0 51 0;
#X connect 27 1 30 1;
#X connect 29 0 31 0;
#X connect 30 0 8 0;
#X connect 30 0 39 1;
#X connect 31 0 32 0;
#X connect 31 1 32 1;
#X connect 32 0 40 0;
#X connect 34 0 35 0;
#X connect 34 1 4 4;
#X connect 35 0 44 0;
#X connect 36 0 4 3;
#X connect 36 1 35 0;
#X connect 36 2 37 0;
#X connect 36 2 44 1;
#X connect 38 0 22 0;
#X connect 39 0 38 0;
#X connect 40 1 39 4;
#X connect 40 2 20 0;
#X connect 41 0 45 0;
#X connect 43 0 24 0;
#X connect 44 0 32 0;
#X connect 44 0 39 3;
#X connect 44 0 42 0;
#X connect 45 0 43 0;
#X connect 45 1 46 0;
#X connect 46 0 47 0;
#X connect 47 0 43 1;
#X connect 49 0 30 0;
#X connect 50 1 27 0;
#X connect 50 2 48 0;
#X connect 50 3 26 0;
#X connect 51 0 52 0;
#X connect 52 0 49 0;
