#N canvas 827 239 734 565 12;
#X obj 487 125 inlet;
#X obj 487 229 f 1;
#X obj 512 292 -;
#X obj 513 344 *;
#X floatatom 550 321 5 0 0 0 - - - 12;
#X obj 487 203 t b f;
#X obj 487 255 t f f;
#X obj 512 318 t f f;
#X obj 487 371 -;
#X obj 487 397 outlet;
#X connect 0 0 5 0;
#X connect 1 0 6 0;
#X connect 2 0 4 0;
#X connect 2 0 7 0;
#X connect 3 0 8 1;
#X connect 5 0 1 0;
#X connect 5 1 2 1;
#X connect 6 0 8 0;
#X connect 6 1 2 0;
#X connect 7 0 3 0;
#X connect 7 1 3 1;
#X connect 8 0 9 0;
