#N canvas 827 239 527 327 12;
#X obj 383 462 pow~;
#X obj 383 491 -~;
#X obj 516 462 pow~;
#X obj 516 532 /~;
#X obj 631 285 inlet~;
#X obj 656 321 *~ -1;
#X obj 610 462 pow~;
#X obj 706 462 pow~;
#X obj 610 491 +~;
#X obj 516 582 outlet~;
#X obj 383 433 r~ e;
#X connect 0 0 1 0;
#X connect 1 0 3 0;
#X connect 2 0 1 1;
#X connect 3 0 9 0;
#X connect 4 0 0 1;
#X connect 4 0 5 0;
#X connect 4 0 6 1;
#X connect 5 0 2 1;
#X connect 5 0 7 1;
#X connect 6 0 8 0;
#X connect 7 0 8 1;
#X connect 8 0 3 1;
#X connect 10 0 0 0;
#X connect 10 0 2 0;
#X connect 10 0 6 0;
#X connect 10 0 7 0;
