#N canvas 827 239 527 327 12;
#X obj 38 180 s~ \$0-input;
#N canvas 610 395 900 544 mainOutput 1;
#X obj 339 456 *~;
#X text 312 793 crossfade the input based on the q value;
#X obj 340 761 dac~;
#X obj 674 42 change;
#X obj 155 483 *~;
#X obj 674 13 r \$0-steps;
#X obj 155 414 r~ \$0-input;
#X obj 340 689 *~;
#N canvas 0 50 450 300 startup 0;
#X obj 276 318 del 500;
#X obj 276 416 line~;
#X obj 276 445 outlet~;
#X obj 276 387 pack 1 250;
#X obj 276 289 loadbang;
#X connect 0 0 3 0;
#X connect 1 0 2 0;
#X connect 3 0 1 0;
#X connect 4 0 0 0;
#X restore 609 642 pd startup volume;
#X obj 340 4 catch~ \$0-output;
#X obj 339 523 hv.hip~;
#X obj 380 492 sig~ 64;
#X obj 676 147 pack 0 4;
#X obj 676 173 line~;
#X obj 410 647 *~;
#X obj 509 581 r~ \$0-stepChange;
#X obj 340 715 *~ 0.99;
#X obj 802 14 r \$0-tone;
#N canvas 0 50 450 300 tanh~ 0;
#X obj 30 79 inlet~;
#X obj 45 149 *~;
#X obj 30 319 outlet~;
#X obj 100 149 sig~ 27;
#X obj 45 189 +~;
#X obj 45 259 /~;
#X obj 30 289 *~;
#X obj 85 189 *~ 9;
#X obj 85 229 +~;
#X text 133 219 // http://www.musicdsp.org/showone.php?id=238;
#X text 131 240 // y = x * (27 + x^2) / (27 + 9*x^2);
#X text 135 194 // pade-approximation of tanh function;
#X obj 30 109 clip~ -10 10;
#X connect 0 0 12 0;
#X connect 1 0 4 0;
#X connect 1 0 7 0;
#X connect 3 0 4 1;
#X connect 3 0 8 1;
#X connect 4 0 5 0;
#X connect 5 0 6 1;
#X connect 6 0 2 0;
#X connect 7 0 8 0;
#X connect 8 0 5 1;
#X connect 12 0 1 0;
#X connect 12 0 1 1;
#X connect 12 0 6 0;
#X restore 339 549 pd tanh~;
#X obj 802 50 * -1;
#X obj 802 76 + 2;
#X obj 674 68 t b f;
#X obj 674 94 f 1;
#X obj 674 120 /;
#X obj 339 204 *~;
#X obj 715 90 pow 0.5;
#X obj 442 461 *~;
#X obj 410 690 *~;
#X obj 409 524 hv.hip~;
#X obj 410 716 *~ 0.99;
#N canvas 0 50 450 300 tanh~ 0;
#X obj 30 79 inlet~;
#X obj 45 149 *~;
#X obj 30 319 outlet~;
#X obj 100 149 sig~ 27;
#X obj 45 189 +~;
#X obj 45 259 /~;
#X obj 30 289 *~;
#X obj 85 189 *~ 9;
#X obj 85 229 +~;
#X text 133 219 // http://www.musicdsp.org/showone.php?id=238;
#X text 131 240 // y = x * (27 + x^2) / (27 + 9*x^2);
#X text 135 194 // pade-approximation of tanh function;
#X obj 30 109 clip~ -10 10;
#X connect 0 0 12 0;
#X connect 1 0 4 0;
#X connect 1 0 7 0;
#X connect 3 0 4 1;
#X connect 3 0 8 1;
#X connect 4 0 5 0;
#X connect 5 0 6 1;
#X connect 6 0 2 0;
#X connect 7 0 8 0;
#X connect 8 0 5 1;
#X connect 12 0 1 0;
#X connect 12 0 1 1;
#X connect 12 0 6 0;
#X restore 409 550 pd tanh~;
#X obj 340 647 *~;
#X obj 362 418 *~;
#X obj 888 219 *~;
#X obj 802 102 pack 0 2;
#X obj 802 128 line~;
#X obj 239 215 r \$0-drywet;
#X obj 239 252 * -1;
#X obj 239 278 + 1;
#X obj 239 304 t f f;
#X obj 239 356 t f f;
#X obj 239 330 *;
#X obj 240 385 *;
#X obj 217 446 *~;
#X obj 911 99 r \$0-amplify;
#X obj 911 128 pow 2;
#X obj 911 154 * 5;
#X obj 385 378 sig~;
#X obj 240 411 sig~;
#X obj 911 180 sig~;
#X obj 452 247 change;
#X obj 441 216 hsl 128 17 1 0 0 0 empty empty empty -2 -8 0 10 #e4e4e4 #4d4d4d #373737 0 1;
#X obj 448 282 * -1;
#X obj 448 308 + 1;
#X obj 385 352 curve;
#X floatatom 448 334 5 0 0 0 - - - 12;
#X floatatom 448 386 5 0 0 0 - - - 12;
#X floatatom 300 386 5 0 0 0 - - - 12;
#X obj 190 592 env~;
#X floatatom 190 618 5 0 0 0 - - - 12;
#X floatatom 962 167 5 0 0 0 - - - 12;
#X connect 0 0 10 0;
#X connect 3 0 21 0;
#X connect 4 0 10 0;
#X connect 5 0 3 0;
#X connect 6 0 4 0;
#X connect 7 0 16 0;
#X connect 8 0 7 1;
#X connect 8 0 27 1;
#X connect 9 0 24 0;
#X connect 10 0 18 0;
#X connect 11 0 10 1;
#X connect 11 0 28 1;
#X connect 12 0 13 0;
#X connect 13 0 24 1;
#X connect 14 0 27 0;
#X connect 15 0 31 1;
#X connect 15 0 14 1;
#X connect 16 0 2 0;
#X connect 16 0 58 0;
#X connect 17 0 19 0;
#X connect 18 0 31 0;
#X connect 19 0 20 0;
#X connect 20 0 34 0;
#X connect 21 0 22 0;
#X connect 21 1 25 0;
#X connect 22 0 23 0;
#X connect 23 0 12 0;
#X connect 24 0 0 0;
#X connect 24 0 26 0;
#X connect 25 0 23 1;
#X connect 26 0 28 0;
#X connect 27 0 29 0;
#X connect 28 0 30 0;
#X connect 29 0 2 1;
#X connect 30 0 14 0;
#X connect 31 0 7 0;
#X connect 32 0 0 1;
#X connect 33 0 26 1;
#X connect 33 0 43 0;
#X connect 33 0 32 0;
#X connect 34 0 35 0;
#X connect 35 0 33 0;
#X connect 36 0 37 0;
#X connect 36 0 54 0;
#X connect 37 0 38 0;
#X connect 38 0 39 0;
#X connect 39 0 41 0;
#X connect 39 1 41 1;
#X connect 40 0 42 0;
#X connect 40 1 42 1;
#X connect 41 0 40 0;
#X connect 42 0 48 0;
#X connect 42 0 57 0;
#X connect 43 0 4 1;
#X connect 44 0 45 0;
#X connect 44 0 60 0;
#X connect 45 0 46 0;
#X connect 46 0 49 0;
#X connect 47 0 32 1;
#X connect 48 0 43 1;
#X connect 49 0 33 1;
#X connect 50 0 52 0;
#X connect 51 0 50 0;
#X connect 52 0 53 0;
#X connect 53 0 55 0;
#X connect 53 0 37 0;
#X connect 53 0 54 0;
#X connect 54 0 47 0;
#X connect 54 0 56 0;
#X connect 58 0 59 0;
#X coords 0 -1 1 1 95 60 0;
#X restore 378 259 pd mainOutput;
#N canvas 99 133 1423 795 midiCtlInputs 0;
#X obj 325 310 s \$0-root;
#X obj 659 268 s \$0-q;
#X obj 325 66 change_invert;
#X obj 484 55 change_invert;
#X obj 484 153 change_invert;
#X obj 655 75 inlet q;
#X obj 276 10 inlet root;
#X obj 785 401 r knob7 @hv_param;
#X obj 137 26 r knob1 @hv_param;
#X obj 702 406 inlet;
#X obj 484 122 r knob5 @hv_param;
#X obj 484 26 r knob3 @hv_param;
#N canvas 0 50 450 300 scales 0;
#X obj 639 633 s \$0-scaleBase;
#X obj 504 315 t b f;
#X obj 504 409 sel 7 6 8 4 3 5 10 9 11;
#X obj 504 259 == 1;
#X obj 645 159 == 1;
#X obj 547 209 > 1;
#X obj 693 159 > 1;
#X obj 682 225 +;
#X obj 693 192 * 2;
#X obj 654 121 t f f;
#X obj 536 147 t f f;
#X obj 504 290 +;
#X obj 547 238 * 2;
#X obj 484 778 s \$0-scaleExponent;
#X obj 513 806 outlet;
#X text 843 133 1 LIM;
#X text 968 133 0 DIST;
#X text 1083 133 2 SHM;
#X text 777 212 3 LRP;
#X text 777 172 6 BND;
#X text 777 254 9 JMP;
#X text 843 172 7 12edo (chrom);
#X text 1083 254 11 19edt;
#X text 967 172 6 13edo;
#X text 1083 172 8 14edo;
#X text 843 212 4 15edo;
#X text 967 212 3 17edo;
#X text 967 254 9 13edt;
#X text 1083 212 5 19edo;
#X text 843 254 10 31edo;
#X obj 504 379 + 0;
#X obj 536 42 inlet;
#X obj 654 42 inlet;
#X obj 484 722 t f f f;
#X floatatom 558 79 5 0 0 0 - - - 12;
#X floatatom 616 79 5 0 0 0 - - - 12;
#X floatatom 435 335 5 0 0 0 - - - 12;
#X floatatom 624 331 5 0 0 0 - - - 12;
#X obj 682 294 * 3;
#X obj 682 254 + 1;
#X msg 338 540 12 2;
#X msg 377 540 19 2;
#X msg 416 540 22 2;
#X msg 455 540 24 2;
#X msg 494 540 31 2;
#X msg 665 592 2;
#X msg 689 592 3;
#X msg 653 539 31 3;
#X msg 611 540 17 3;
#X msg 572 540 13 3;
#X msg 533 540 25 5;
#X msg 714 593 5;
#X obj 504 346 f 1;
#X obj 437 436 t a a;
#X obj 468 436 t a a;
#X obj 499 436 t a a;
#X obj 530 436 t a a;
#X obj 561 436 t a a;
#X obj 592 436 t a a;
#X obj 623 436 t a a;
#X obj 654 436 t a a;
#X obj 685 436 t a a;
#X connect 1 0 52 0;
#X connect 1 1 30 1;
#X connect 2 0 53 0;
#X connect 2 1 54 0;
#X connect 2 2 55 0;
#X connect 2 3 56 0;
#X connect 2 4 57 0;
#X connect 2 5 58 0;
#X connect 2 6 59 0;
#X connect 2 7 60 0;
#X connect 2 8 61 0;
#X connect 3 0 11 0;
#X connect 4 0 7 0;
#X connect 5 0 12 0;
#X connect 6 0 8 0;
#X connect 7 0 39 0;
#X connect 8 0 7 1;
#X connect 9 0 4 0;
#X connect 9 1 6 0;
#X connect 10 0 3 0;
#X connect 10 1 5 0;
#X connect 11 0 1 0;
#X connect 11 0 36 0;
#X connect 12 0 11 1;
#X connect 30 0 2 0;
#X connect 31 0 10 0;
#X connect 31 0 34 0;
#X connect 32 0 9 0;
#X connect 32 0 35 0;
#X connect 33 0 13 0;
#X connect 33 2 14 0;
#X connect 38 0 37 0;
#X connect 38 0 52 0;
#X connect 39 0 38 0;
#X connect 40 0 33 0;
#X connect 41 0 33 0;
#X connect 42 0 33 0;
#X connect 43 0 33 0;
#X connect 44 0 33 0;
#X connect 45 0 0 0;
#X connect 46 0 0 0;
#X connect 47 0 33 0;
#X connect 48 0 33 0;
#X connect 49 0 33 0;
#X connect 50 0 33 0;
#X connect 51 0 0 0;
#X connect 52 0 30 0;
#X connect 53 0 40 0;
#X connect 53 1 45 0;
#X connect 54 0 41 0;
#X connect 54 1 45 0;
#X connect 55 0 42 0;
#X connect 55 1 45 0;
#X connect 56 0 43 0;
#X connect 56 1 45 0;
#X connect 57 0 44 0;
#X connect 57 1 45 0;
#X connect 58 0 50 0;
#X connect 58 1 51 0;
#X connect 59 0 49 0;
#X connect 59 1 46 0;
#X connect 60 0 48 0;
#X connect 60 1 46 0;
#X connect 61 0 47 0;
#X connect 61 1 46 0;
#X restore 909 195 pd scales;
#X obj 35 26 inlet drywet;
#X obj 1124 311 change_invert;
#X obj 985 311 change_invert;
#X obj 1017 214 inlet steps;
#X obj 1161 210 inlet rotation;
#X obj 933 784 s \$0-steps;
#X obj 1058 891 s \$0-rotation;
#X obj 985 433 int;
#X obj 1124 396 int;
#X obj 1030 340 - 1;
#X obj 985 406 + 1;
#X obj 985 285 r knob6 @hv_param;
#X obj 1124 285 r knob4 @hv_param;
#X obj 325 39 r knob2 @hv_param;
#X obj 985 340 f;
#X obj 1124 340 f;
#X obj 985 369 *;
#X obj 1124 369 *;
#X obj 1027 45 r switch1 @hv_param;
#X obj 1171 45 r switch2 @hv_param;
#X obj 827 5 r \$0-switch-1;
#X obj 926 5 r \$0-switch-2;
#X obj 1027 74 change;
#X obj 1171 74 change;
#N canvas 0 50 450 300 leds 0;
#X obj 266 620 pack 0 0 0;
#X obj 266 584 f;
#X obj 266 645 s led3 @hv_param;
#X obj 132 620 pack 0 0 0;
#X obj 132 584 f;
#X obj 536 620 pack 0 0 0;
#X obj 536 584 f;
#X obj 402 620 pack 0 0 0;
#X obj 402 584 f;
#X obj 132 645 s led4 @hv_param;
#X obj 402 645 s led2 @hv_param;
#X obj 536 645 s led1 @hv_param;
#X obj 161 71 inlet;
#X obj 161 177 int;
#X floatatom 161 367 5 0 0 0 - - - 12;
#X obj 161 148 / 16;
#X obj 203 238 int;
#X floatatom 203 367 5 0 0 0 - - - 12;
#X obj 203 209 / 8;
#X obj 203 148 mod 16;
#X obj 161 100 t f f;
#X obj 203 177 t f f;
#X obj 245 300 int;
#X obj 245 239 t f f;
#X obj 245 210 mod 8;
#X obj 313 238 int;
#X obj 313 177 t f f;
#X obj 313 148 mod 4;
#X obj 356 300 int;
#X obj 356 210 mod 2;
#X floatatom 249 367 5 0 0 0 - - - 12;
#X floatatom 291 367 5 0 0 0 - - - 12;
#X floatatom 369 359 5 0 0 0 - - - 12;
#X obj 245 271 / 4;
#X obj 313 209 / 2;
#X obj 132 548 * 1;
#X obj 266 548 * 1;
#X obj 402 548 * 1;
#X obj 536 548 * 1;
#X obj 79 388 metro 333;
#X obj 79 211 change;
#X obj 79 417 f 1;
#X obj 79 446 +;
#X obj 79 475 mod 2;
#X obj 79 504 t b b b b f;
#X floatatom 97 166 5 0 0 0 - - - 12;
#X obj 79 240 t f f;
#X obj 90 271 sel 0;
#X obj 90 300 del 500;
#X obj 90 329 f 1;
#X connect 0 0 2 0;
#X connect 1 0 0 0;
#X connect 1 0 0 1;
#X connect 1 0 0 2;
#X connect 3 0 9 0;
#X connect 4 0 3 0;
#X connect 4 0 3 1;
#X connect 4 0 3 2;
#X connect 5 0 11 0;
#X connect 6 0 5 0;
#X connect 6 0 5 1;
#X connect 6 0 5 2;
#X connect 7 0 10 0;
#X connect 8 0 7 0;
#X connect 8 0 7 1;
#X connect 8 0 7 2;
#X connect 12 0 20 0;
#X connect 13 0 14 0;
#X connect 13 0 40 0;
#X connect 15 0 13 0;
#X connect 16 0 17 0;
#X connect 16 0 38 0;
#X connect 18 0 16 0;
#X connect 19 0 21 0;
#X connect 20 0 15 0;
#X connect 20 0 45 0;
#X connect 20 1 19 0;
#X connect 21 0 18 0;
#X connect 21 1 24 0;
#X connect 22 0 30 0;
#X connect 22 0 37 0;
#X connect 23 0 33 0;
#X connect 23 1 27 0;
#X connect 24 0 23 0;
#X connect 25 0 31 0;
#X connect 25 0 36 0;
#X connect 26 0 34 0;
#X connect 26 1 29 0;
#X connect 27 0 26 0;
#X connect 28 0 32 0;
#X connect 28 0 35 0;
#X connect 29 0 28 0;
#X connect 33 0 22 0;
#X connect 34 0 25 0;
#X connect 35 0 4 0;
#X connect 36 0 1 0;
#X connect 37 0 8 0;
#X connect 38 0 6 0;
#X connect 39 0 41 0;
#X connect 40 0 46 0;
#X connect 41 0 42 0;
#X connect 42 0 43 0;
#X connect 43 0 42 1;
#X connect 43 0 44 0;
#X connect 44 0 35 0;
#X connect 44 1 36 0;
#X connect 44 2 37 0;
#X connect 44 3 38 0;
#X connect 44 4 38 1;
#X connect 44 4 37 1;
#X connect 44 4 36 1;
#X connect 44 4 35 1;
#X connect 46 0 39 0;
#X connect 46 1 47 0;
#X connect 47 0 48 0;
#X connect 48 0 49 0;
#X connect 49 0 44 0;
#X restore 1046 610 pd leds;
#X obj 827 74 sel 0 1 2;
#X obj 827 103 f 1;
#X obj 842 133 f 0;
#X obj 869 103 f 2;
#X obj 927 74 sel 0 1 2;
#X obj 927 103 f 1;
#X obj 942 133 f 0;
#X obj 969 103 f 2;
#X obj 712 75 inlet regen;
#X obj 325 95 t f b f;
#X obj 484 201 f;
#X obj 933 724 f;
#X obj 1163 895 s~ \$0-stepChange;
#X obj 1163 816 line~;
#X obj 1161 677 f 0;
#X obj 1115 707 f 1;
#X obj 1030 789 s \$0-clear;
#X obj 1058 855 f;
#X obj 1124 522 t b f;
#X obj 986 497 f;
#X obj 484 230 * 2;
#X obj 909 224 min 19;
#X obj 324 206 * 30;
#X text 369 235 3V = 3 octaves;
#X text 270 258 The higher octaves were wasted.;
#X floatatom 300 279 5 0 0 0 - - - 12;
#X obj 324 232 + 24;
#X obj 659 207 pow 2;
#X obj 827 31 change;
#X obj 926 31 change;
#X obj 988 622 f;
#X obj 1163 780 pack 0 15;
#X floatatom 1049 409 5 0 0 0 - - - 12;
#X floatatom 947 559 5 0 0 0 - - - 12;
#X floatatom 1005 911 5 0 0 0 - - - 12;
#X obj 1017 240 change;
#X obj 1124 462 + 1;
#X obj 1124 488 mod;
#X obj 909 263 t b b f f f;
#X floatatom 902 755 5 0 0 0 - - - 12;
#X floatatom 1230 736 5 0 0 0 - - - 12;
#X obj 528 315 t f f f b b;
#X obj 522 473 s \$0-fb;
#X obj 368 358 r~ \$0-input;
#X obj 387 705 s~ \$0-fbDuck;
#X obj 647 395 > 1;
#X obj 586 488 max 1;
#X obj 586 514 - 1;
#X obj 387 401 abs~;
#X obj 387 453 rmstodb~;
#X obj 387 509 clip~ 0 1000;
#X obj 387 482 -~ 50;
#X obj 387 626 *~;
#X obj 387 652 +~ 1;
#X obj 387 427 lop~ 100;
#X obj 387 532 /~ 50;
#X obj 387 579 *~ -1;
#X obj 586 601 sig~;
#X obj 585 549 * 100;
#X obj 585 575 + 200;
#X obj 522 363 moses 1;
#X obj 568 389 - 1;
#X obj 568 441 + 1;
#X obj 568 415 pow 4;
#X obj 697 177 s \$0-tone;
#X obj 988 663 t b b b b f;
#X obj 387 605 *~;
#X obj 647 421 sig~;
#X obj 521 557 sig~;
#X floatatom 645 541 5 0 0 0 - - - 12;
#X obj 985 468 change;
#X floatatom 1212 487 5 0 0 0 - - - 12;
#X floatatom 1236 430 5 0 0 0 - - - 12;
#X obj 1166 343 - 1;
#X floatatom 942 620 5 0 0 0 - - - 12;
#X obj 987 545 t b f b f b;
#X obj 1073 932 print rotation;
#X obj 921 854 print steps;
#X obj 1161 236 change;
#X obj 1124 422 change;
#X obj 1115 736 pack 1 60;
#X obj 988 589 del 30;
#X obj 1066 573 del 15;
#X obj 1395 357 change;
#X obj 1395 494 sig~;
#X obj 1395 556 s~ \$0-strike;
#X obj 1376 290 inlet button;
#X obj 1395 520 *~;
#X obj 1442 403 noise~;
#X obj 1442 429 hv.lop~;
#X obj 1510 397 sig~ 3000;
#X obj 1395 331 r button @hv_param;
#X obj 35 127 pack 0 2;
#X obj 137 202 s \$0-drywet;
#X obj 137 52 change;
#X obj 137 108 + 1;
#X obj 137 134 clip 0 1;
#X obj 35 153 line;
#X obj 785 427 change_invert;
#X obj 785 529 s \$0-amplify;
#X obj 387 557 q8_sqrt~;
#X obj 137 80 * -1.05;
#X obj 701 435 pack 0 10;
#X obj 701 461 line;
#X obj 35 52 * -1;
#X obj 35 78 + 1;
#X obj 1163 862 *~;
#X connect 2 0 47 0;
#X connect 3 0 65 0;
#X connect 3 0 102 0;
#X connect 4 0 48 0;
#X connect 5 0 65 0;
#X connect 5 0 102 0;
#X connect 6 0 47 0;
#X connect 7 0 136 0;
#X connect 8 0 132 0;
#X connect 9 0 140 0;
#X connect 10 0 4 0;
#X connect 11 0 3 0;
#X connect 12 0 59 0;
#X connect 13 0 142 0;
#X connect 14 0 28 0;
#X connect 15 0 27 0;
#X connect 16 0 73 0;
#X connect 17 0 116 0;
#X connect 20 0 108 0;
#X connect 21 0 117 0;
#X connect 22 0 29 1;
#X connect 23 0 20 0;
#X connect 24 0 15 0;
#X connect 25 0 14 0;
#X connect 26 0 2 0;
#X connect 27 0 29 0;
#X connect 27 0 70 0;
#X connect 28 0 30 0;
#X connect 29 0 23 0;
#X connect 30 0 21 0;
#X connect 30 0 110 0;
#X connect 31 0 35 0;
#X connect 32 0 36 0;
#X connect 33 0 66 0;
#X connect 34 0 67 0;
#X connect 35 0 12 0;
#X connect 36 0 12 1;
#X connect 38 0 39 0;
#X connect 38 1 40 0;
#X connect 38 2 41 0;
#X connect 39 0 12 0;
#X connect 40 0 12 0;
#X connect 41 0 12 0;
#X connect 42 0 43 0;
#X connect 42 1 44 0;
#X connect 42 2 45 0;
#X connect 43 0 12 1;
#X connect 44 0 12 1;
#X connect 45 0 12 1;
#X connect 46 0 48 0;
#X connect 47 0 60 0;
#X connect 47 1 48 0;
#X connect 48 0 58 0;
#X connect 49 0 18 0;
#X connect 49 0 77 0;
#X connect 49 0 115 0;
#X connect 51 0 144 0;
#X connect 51 0 144 1;
#X connect 52 0 69 0;
#X connect 52 0 78 0;
#X connect 53 0 78 0;
#X connect 53 0 118 0;
#X connect 55 0 19 0;
#X connect 55 0 72 0;
#X connect 55 0 114 0;
#X connect 56 0 57 0;
#X connect 56 1 55 1;
#X connect 57 0 71 0;
#X connect 57 0 113 0;
#X connect 58 0 79 0;
#X connect 59 0 76 0;
#X connect 60 0 63 0;
#X connect 60 0 64 0;
#X connect 64 0 0 0;
#X connect 65 0 1 0;
#X connect 66 0 38 0;
#X connect 67 0 42 0;
#X connect 68 0 103 0;
#X connect 68 0 112 0;
#X connect 69 0 51 0;
#X connect 73 0 27 0;
#X connect 74 0 75 0;
#X connect 75 0 56 0;
#X connect 75 0 109 0;
#X connect 76 0 27 0;
#X connect 76 1 28 0;
#X connect 76 2 22 0;
#X connect 76 3 111 0;
#X connect 76 4 75 1;
#X connect 79 0 98 0;
#X connect 79 1 84 0;
#X connect 79 2 83 0;
#X connect 81 0 86 0;
#X connect 83 0 105 0;
#X connect 84 0 85 0;
#X connect 85 0 96 0;
#X connect 85 0 107 0;
#X connect 85 0 106 0;
#X connect 86 0 92 0;
#X connect 87 0 89 0;
#X connect 88 0 93 0;
#X connect 89 0 88 0;
#X connect 90 0 91 0;
#X connect 91 0 82 0;
#X connect 92 0 87 0;
#X connect 93 0 138 0;
#X connect 94 0 104 0;
#X connect 95 0 92 1;
#X connect 96 0 97 0;
#X connect 97 0 95 0;
#X connect 98 0 80 0;
#X connect 98 1 99 0;
#X connect 99 0 101 0;
#X connect 100 0 80 0;
#X connect 101 0 100 0;
#X connect 103 0 53 0;
#X connect 103 1 49 0;
#X connect 103 3 55 0;
#X connect 103 4 49 1;
#X connect 104 0 90 0;
#X connect 105 0 90 1;
#X connect 106 0 104 1;
#X connect 108 0 57 0;
#X connect 111 0 30 1;
#X connect 113 0 119 0;
#X connect 113 1 68 1;
#X connect 113 2 52 0;
#X connect 113 3 37 0;
#X connect 113 4 120 0;
#X connect 116 0 28 0;
#X connect 117 0 74 0;
#X connect 118 0 51 0;
#X connect 119 0 68 0;
#X connect 120 0 54 0;
#X connect 121 0 122 0;
#X connect 122 0 125 0;
#X connect 124 0 121 0;
#X connect 125 0 123 0;
#X connect 126 0 127 0;
#X connect 127 0 125 1;
#X connect 128 0 127 1;
#X connect 129 0 121 0;
#X connect 130 0 135 0;
#X connect 132 0 139 0;
#X connect 133 0 134 0;
#X connect 134 0 131 0;
#X connect 135 0 132 0;
#X connect 136 0 137 0;
#X connect 138 0 94 0;
#X connect 139 0 133 0;
#X connect 140 0 141 0;
#X connect 141 0 137 0;
#X connect 142 0 143 0;
#X connect 143 0 130 0;
#X connect 144 0 50 0;
#X restore 378 225 pd midiCtlInputs;
#X obj 414 84 hsl 128 17 0 1 0 0 empty empty Tone -2 -8 0 10 #e4e4e4 #4d4d4d #373737 0 1;
#X obj 559 65 hsl 128 17 0 1 0 0 empty empty Regen -2 -8 0 10 #e4e4e4 #4d4d4d #373737 0 1;
#X obj 559 139 hsl 128 17 0 1 0 0 empty empty Amp -2 -8 0 10 #e4e4e4 #4d4d4d #373737 0 1;
#X obj 262 69 hsl 128 17 0 1 0 0 empty empty dry/wet -2 -8 0 10 #e4e4e4 #4d4d4d #373737 0 1;
#X text 162 553 1_blend_preamp;
#X obj 265 104 hsl 128 17 0 1 0 0 empty empty root -2 -8 0 10 #e4e4e4 #4d4d4d #373737 0 1;
#X text 446 553 5_regen_feedback;
#X text 306 571 3_tone_resonance;
#X text 446 592 6_size_NA;
#X text 162 592 2_speed_NA;
#X text 306 610 4_index_root;
#X text 446 634 7_dry/wet;
#X obj 556 103 hsl 128 17 0 1 0 0 empty empty Steps -2 -8 0 10 #e4e4e4 #4d4d4d #373737 0 1;
#X obj 416 123 hsl 128 17 0 1 0 0 empty empty rotation -2 -8 0 10 #e4e4e4 #4d4d4d #373737 0 1;
#X obj 293 173 hradio 20 1 0 3 \$0-switch-2 empty empty 0 -8 0 10 #e4e4e4 #4d4d4d #373737 0;
#X obj 293 139 hradio 20 1 0 3 \$0-switch-1 empty empty 0 -8 0 10 #e4e4e4 #4d4d4d #373737 0;
#X obj 38 12 adc~;
#X text 725 44 128 block;
#X text 725 68 48000 sample rate;
#X text 726 127 compiled 2026 3 14;
#X text 725 93 Big + SDRAM;
#X text 725 19 successfully compiled;
#X obj 79 93 sig~ 35;
#X obj 38 124 hv.hip~;
#X obj 363 295 catgut~ 2 \$0;
#X obj 456 295 catgut~ 3 \$0;
#X obj 549 295 catgut~ 4 \$0;
#X obj 270 336 catgut~ 6 \$0;
#X obj 367 336 catgut~ 7 \$0;
#X obj 460 336 catgut~ 8 \$0;
#X obj 553 336 catgut~ 9 \$0;
#X obj 646 336 catgut~ 10 \$0;
#X obj 270 375 catgut~ 11 \$0;
#X obj 363 375 catgut~ 12 \$0;
#X obj 460 375 catgut~ 13 \$0;
#X obj 553 375 catgut~ 14 \$0;
#X obj 646 375 catgut~ 15 \$0;
#X obj 270 416 catgut~ 16 \$0;
#X obj 367 416 catgut~ 17 \$0;
#X obj 460 416 catgut~ 18 \$0;
#X obj 553 416 catgut~ 19 \$0;
#X obj 271 295 catgut~ 1 \$0;
#X obj 648 297 catgut~ 5 \$0;
#X text 904 202 New Cithara Tunings;
#X obj 564 199 r \$0-steps;
#X floatatom 564 225 5 0 0 0 - - - 12;
#X text 418 -128 Working out why strings turn on and off.;
#X text 417 -92 Print \, prints whether string number is below max number of strings \, midi note \, and if the string does not match the midi note of the previous string.;
#X obj 640 240 s \$0-showStatus;
#X obj 641 203 bng 25 250 50 0 empty empty empty 0 -10 0 10 #e4e4e4 #4d4d4d #373737;
#X obj 843 319 table \$0-midiScale 19;
#X text 904 226 12 19 22 \; 24 31 25/5 \; 13/3 17/3 31/3 \;, f 18;
#X obj 38 62 *~ 0.5;
#X obj 128 22 r~ \$0-strike;
#X obj 518 190 tgl 25 0 empty empty empty 0 -10 0 10 #e4e4e4 #4d4d4d #373737 0 1;
#X connect 3 0 2 2;
#X connect 4 0 2 4;
#X connect 5 0 2 3;
#X connect 6 0 2 0;
#X connect 8 0 2 1;
#X connect 15 0 2 5;
#X connect 16 0 2 6;
#X connect 19 0 55 0;
#X connect 19 1 55 0;
#X connect 25 0 26 1;
#X connect 26 0 0 0;
#X connect 47 0 48 0;
#X connect 52 0 51 0;
#X connect 55 0 26 0;
#X connect 56 0 0 0;
#X connect 57 0 2 7;
